<?xml version="1.0" encoding="utf-8" standalone="no"?>
<!DOCTYPE svg PUBLIC "-//W3C//DTD SVG 1.1//EN"
  "http://www.w3.org/Graphics/SVG/1.1/DTD/svg11.dtd">
<svg xmlns:xlink="http://www.w3.org/1999/xlink" width="678.24pt" height="650.873931pt" viewBox="0 0 678.24 650.873931" xmlns="http://www.w3.org/2000/svg" version="1.1">
 <metadata>
  <rdf:RDF xmlns:dc="http://purl.org/dc/elements/1.1/" xmlns:cc="http://creativecommons.org/ns#" xmlns:rdf="http://www.w3.org/1999/02/22-rdf-syntax-ns#">
   <cc:Work>
    <dc:type rdf:resource="http://purl.org/dc/dcmitype/StillImage"/>
    <dc:date>2026-06-24T11:10:06.756858</dc:date>
    <dc:format>image/svg+xml</dc:format>
    <dc:creator>
     <cc:Agent>
      <dc:title>Matplotlib v3.10.8, https://matplotlib.org/</dc:title>
     </cc:Agent>
    </dc:creator>
   </cc:Work>
  </rdf:RDF>
 </metadata>
 <defs>
  <style type="text/css">*{stroke-linejoin: round; stroke-linecap: butt}</style>
 </defs>
 <g id="figure_1">
  <g id="patch_1">
   <path d="M 0 650.873931 
L 678.24 650.873931 
L 678.24 0 
L 0 0 
z
" style="fill: #ffffff"/>
  </g>
  <g id="axes_1">
   <g id="patch_2">
    <path d="M 154.98 73.48956 
L 211.4496 73.48956 
L 211.4496 55.146767 
L 154.98 55.146767 
z
" clip-path="url(#p53d00b6685)" style="fill: #8c2943; stroke: #ffffff; stroke-width: 0.8; stroke-linejoin: miter"/>
   </g>
   <g id="patch_3">
    <path d="M 216.36 73.48956 
L 272.8296 73.48956 
L 272.8296 55.146767 
L 216.36 55.146767 
z
" clip-path="url(#p53d00b6685)" style="fill: #d899a5; stroke: #ffffff; stroke-width: 0.8; stroke-linejoin: miter"/>
   </g>
   <g id="patch_4">
    <path d="M 277.74 73.48956 
L 334.2096 73.48956 
L 334.2096 55.146767 
L 277.74 55.146767 
z
" clip-path="url(#p53d00b6685)" style="fill: #c56f8d; stroke: #ffffff; stroke-width: 0.8; stroke-linejoin: miter"/>
   </g>
   <g id="patch_5">
    <path d="M 339.12 73.48956 
L 395.5896 73.48956 
L 395.5896 55.146767 
L 339.12 55.146767 
z
" clip-path="url(#p53d00b6685)" style="fill: #9a789c; stroke: #ffffff; stroke-width: 0.8; stroke-linejoin: miter"/>
   </g>
   <g id="patch_6">
    <path d="M 400.5 73.48956 
L 456.9696 73.48956 
L 456.9696 55.146767 
L 400.5 55.146767 
z
" clip-path="url(#p53d00b6685)" style="fill: #6d4c6d; stroke: #ffffff; stroke-width: 0.8; stroke-linejoin: miter"/>
   </g>
   <g id="patch_7">
    <path d="M 461.88 73.48956 
L 518.3496 73.48956 
L 518.3496 55.146767 
L 461.88 55.146767 
z
" clip-path="url(#p53d00b6685)" style="fill: #b6a1c4; stroke: #ffffff; stroke-width: 0.8; stroke-linejoin: miter"/>
   </g>
   <g id="patch_8">
    <path d="M 523.26 73.48956 
L 579.7296 73.48956 
L 579.7296 55.146767 
L 523.26 55.146767 
z
" clip-path="url(#p53d00b6685)" style="fill: #d7a928; stroke: #ffffff; stroke-width: 0.8; stroke-linejoin: miter"/>
   </g>
   <g id="patch_9">
    <path d="M 584.64 73.48956 
L 641.1096 73.48956 
L 641.1096 55.146767 
L 584.64 55.146767 
z
" clip-path="url(#p53d00b6685)" style="fill: #f7f3eb; stroke: #ffffff; stroke-width: 0.8; stroke-linejoin: miter"/>
   </g>
   <g id="patch_10">
    <path d="M 154.98 103.074711 
L 211.4496 103.074711 
L 211.4496 84.731918 
L 154.98 84.731918 
z
" clip-path="url(#p53d00b6685)" style="fill: #d7a928; stroke: #ffffff; stroke-width: 0.8; stroke-linejoin: miter"/>
   </g>
   <g id="patch_11">
    <path d="M 216.36 103.074711 
L 272.8296 103.074711 
L 272.8296 84.731918 
L 216.36 84.731918 
z
" clip-path="url(#p53d00b6685)" style="fill: #d9be8a; stroke: #ffffff; stroke-width: 0.8; stroke-linejoin: miter"/>
   </g>
   <g id="patch_12">
    <path d="M 277.74 103.074711 
L 334.2096 103.074711 
L 334.2096 84.731918 
L 277.74 84.731918 
z
" clip-path="url(#p53d00b6685)" style="fill: #a69a64; stroke: #ffffff; stroke-width: 0.8; stroke-linejoin: miter"/>
   </g>
   <g id="patch_13">
    <path d="M 339.12 103.074711 
L 395.5896 103.074711 
L 395.5896 84.731918 
L 339.12 84.731918 
z
" clip-path="url(#p53d00b6685)" style="fill: #6f8f73; stroke: #ffffff; stroke-width: 0.8; stroke-linejoin: miter"/>
   </g>
   <g id="patch_14">
    <path d="M 400.5 103.074711 
L 456.9696 103.074711 
L 456.9696 84.731918 
L 400.5 84.731918 
z
" clip-path="url(#p53d00b6685)" style="fill: #80ad9b; stroke: #ffffff; stroke-width: 0.8; stroke-linejoin: miter"/>
   </g>
   <g id="patch_15">
    <path d="M 461.88 103.074711 
L 518.3496 103.074711 
L 518.3496 84.731918 
L 461.88 84.731918 
z
" clip-path="url(#p53d00b6685)" style="fill: #8fb7c7; stroke: #ffffff; stroke-width: 0.8; stroke-linejoin: miter"/>
   </g>
   <g id="patch_16">
    <path d="M 523.26 103.074711 
L 579.7296 103.074711 
L 579.7296 84.731918 
L 523.26 84.731918 
z
" clip-path="url(#p53d00b6685)" style="fill: #536f8d; stroke: #ffffff; stroke-width: 0.8; stroke-linejoin: miter"/>
   </g>
   <g id="patch_17">
    <path d="M 584.64 103.074711 
L 641.1096 103.074711 
L 641.1096 84.731918 
L 584.64 84.731918 
z
" clip-path="url(#p53d00b6685)" style="fill: #6c503b; stroke: #ffffff; stroke-width: 0.8; stroke-linejoin: miter"/>
   </g>
   <g id="patch_18">
    <path d="M 154.98 132.659862 
L 211.4496 132.659862 
L 211.4496 114.317068 
L 154.98 114.317068 
z
" clip-path="url(#p53d00b6685)" style="fill: #8fb7c7; stroke: #ffffff; stroke-width: 0.8; stroke-linejoin: miter"/>
   </g>
   <g id="patch_19">
    <path d="M 216.36 132.659862 
L 272.8296 132.659862 
L 272.8296 114.317068 
L 216.36 114.317068 
z
" clip-path="url(#p53d00b6685)" style="fill: #6fa7c4; stroke: #ffffff; stroke-width: 0.8; stroke-linejoin: miter"/>
   </g>
   <g id="patch_20">
    <path d="M 277.74 132.659862 
L 334.2096 132.659862 
L 334.2096 114.317068 
L 277.74 114.317068 
z
" clip-path="url(#p53d00b6685)" style="fill: #e9a46b; stroke: #ffffff; stroke-width: 0.8; stroke-linejoin: miter"/>
   </g>
   <g id="patch_21">
    <path d="M 339.12 132.659862 
L 395.5896 132.659862 
L 395.5896 114.317068 
L 339.12 114.317068 
z
" clip-path="url(#p53d00b6685)" style="fill: #d77b73; stroke: #ffffff; stroke-width: 0.8; stroke-linejoin: miter"/>
   </g>
   <g id="patch_22">
    <path d="M 400.5 132.659862 
L 456.9696 132.659862 
L 456.9696 114.317068 
L 400.5 114.317068 
z
" clip-path="url(#p53d00b6685)" style="fill: #d7a928; stroke: #ffffff; stroke-width: 0.8; stroke-linejoin: miter"/>
   </g>
   <g id="patch_23">
    <path d="M 461.88 132.659862 
L 518.3496 132.659862 
L 518.3496 114.317068 
L 461.88 114.317068 
z
" clip-path="url(#p53d00b6685)" style="fill: #6f8f73; stroke: #ffffff; stroke-width: 0.8; stroke-linejoin: miter"/>
   </g>
   <g id="patch_24">
    <path d="M 523.26 132.659862 
L 579.7296 132.659862 
L 579.7296 114.317068 
L 523.26 114.317068 
z
" clip-path="url(#p53d00b6685)" style="fill: #d899a5; stroke: #ffffff; stroke-width: 0.8; stroke-linejoin: miter"/>
   </g>
   <g id="patch_25">
    <path d="M 584.64 132.659862 
L 641.1096 132.659862 
L 641.1096 114.317068 
L 584.64 114.317068 
z
" clip-path="url(#p53d00b6685)" style="fill: #f7f3eb; stroke: #ffffff; stroke-width: 0.8; stroke-linejoin: miter"/>
   </g>
   <g id="patch_26">
    <path d="M 154.98 162.245013 
L 211.4496 162.245013 
L 211.4496 143.902219 
L 154.98 143.902219 
z
" clip-path="url(#p53d00b6685)" style="fill: #e4a127; stroke: #ffffff; stroke-width: 0.8; stroke-linejoin: miter"/>
   </g>
   <g id="patch_27">
    <path d="M 216.36 162.245013 
L 272.8296 162.245013 
L 272.8296 143.902219 
L 216.36 143.902219 
z
" clip-path="url(#p53d00b6685)" style="fill: #c96f50; stroke: #ffffff; stroke-width: 0.8; stroke-linejoin: miter"/>
   </g>
   <g id="patch_28">
    <path d="M 277.74 162.245013 
L 334.2096 162.245013 
L 334.2096 143.902219 
L 277.74 143.902219 
z
" clip-path="url(#p53d00b6685)" style="fill: #3e7c78; stroke: #ffffff; stroke-width: 0.8; stroke-linejoin: miter"/>
   </g>
   <g id="patch_29">
    <path d="M 339.12 162.245013 
L 395.5896 162.245013 
L 395.5896 143.902219 
L 339.12 143.902219 
z
" clip-path="url(#p53d00b6685)" style="fill: #2e4f68; stroke: #ffffff; stroke-width: 0.8; stroke-linejoin: miter"/>
   </g>
   <g id="patch_30">
    <path d="M 400.5 162.245013 
L 456.9696 162.245013 
L 456.9696 143.902219 
L 400.5 143.902219 
z
" clip-path="url(#p53d00b6685)" style="fill: #c56f8d; stroke: #ffffff; stroke-width: 0.8; stroke-linejoin: miter"/>
   </g>
   <g id="patch_31">
    <path d="M 461.88 162.245013 
L 518.3496 162.245013 
L 518.3496 143.902219 
L 461.88 143.902219 
z
" clip-path="url(#p53d00b6685)" style="fill: #788354; stroke: #ffffff; stroke-width: 0.8; stroke-linejoin: miter"/>
   </g>
   <g id="patch_32">
    <path d="M 523.26 162.245013 
L 579.7296 162.245013 
L 579.7296 143.902219 
L 523.26 143.902219 
z
" clip-path="url(#p53d00b6685)" style="fill: #d9be8a; stroke: #ffffff; stroke-width: 0.8; stroke-linejoin: miter"/>
   </g>
   <g id="patch_33">
    <path d="M 584.64 162.245013 
L 641.1096 162.245013 
L 641.1096 143.902219 
L 584.64 143.902219 
z
" clip-path="url(#p53d00b6685)" style="fill: #8c2943; stroke: #ffffff; stroke-width: 0.8; stroke-linejoin: miter"/>
   </g>
   <g id="patch_34">
    <path d="M 154.98 191.830164 
L 211.4496 191.830164 
L 211.4496 173.48737 
L 154.98 173.48737 
z
" clip-path="url(#p53d00b6685)" style="fill: #a94442; stroke: #ffffff; stroke-width: 0.8; stroke-linejoin: miter"/>
   </g>
   <g id="patch_35">
    <path d="M 216.36 191.830164 
L 272.8296 191.830164 
L 272.8296 173.48737 
L 216.36 173.48737 
z
" clip-path="url(#p53d00b6685)" style="fill: #d7a928; stroke: #ffffff; stroke-width: 0.8; stroke-linejoin: miter"/>
   </g>
   <g id="patch_36">
    <path d="M 277.74 191.830164 
L 334.2096 191.830164 
L 334.2096 173.48737 
L 277.74 173.48737 
z
" clip-path="url(#p53d00b6685)" style="fill: #2e4f68; stroke: #ffffff; stroke-width: 0.8; stroke-linejoin: miter"/>
   </g>
   <g id="patch_37">
    <path d="M 339.12 191.830164 
L 395.5896 191.830164 
L 395.5896 173.48737 
L 339.12 173.48737 
z
" clip-path="url(#p53d00b6685)" style="fill: #d899a5; stroke: #ffffff; stroke-width: 0.8; stroke-linejoin: miter"/>
   </g>
   <g id="patch_38">
    <path d="M 400.5 191.830164 
L 456.9696 191.830164 
L 456.9696 173.48737 
L 400.5 173.48737 
z
" clip-path="url(#p53d00b6685)" style="fill: #6c503b; stroke: #ffffff; stroke-width: 0.8; stroke-linejoin: miter"/>
   </g>
   <g id="patch_39">
    <path d="M 461.88 191.830164 
L 518.3496 191.830164 
L 518.3496 173.48737 
L 461.88 173.48737 
z
" clip-path="url(#p53d00b6685)" style="fill: #6f8f73; stroke: #ffffff; stroke-width: 0.8; stroke-linejoin: miter"/>
   </g>
   <g id="patch_40">
    <path d="M 523.26 191.830164 
L 579.7296 191.830164 
L 579.7296 173.48737 
L 523.26 173.48737 
z
" clip-path="url(#p53d00b6685)" style="fill: #f7f3eb; stroke: #ffffff; stroke-width: 0.8; stroke-linejoin: miter"/>
   </g>
   <g id="patch_41">
    <path d="M 584.64 191.830164 
L 641.1096 191.830164 
L 641.1096 173.48737 
L 584.64 173.48737 
z
" clip-path="url(#p53d00b6685)" style="fill: #6d4c6d; stroke: #ffffff; stroke-width: 0.8; stroke-linejoin: miter"/>
   </g>
   <g id="patch_42">
    <path d="M 154.98 221.415314 
L 211.4496 221.415314 
L 211.4496 203.072521 
L 154.98 203.072521 
z
" clip-path="url(#p53d00b6685)" style="fill: #e9a46b; stroke: #ffffff; stroke-width: 0.8; stroke-linejoin: miter"/>
   </g>
   <g id="patch_43">
    <path d="M 216.36 221.415314 
L 272.8296 221.415314 
L 272.8296 203.072521 
L 216.36 203.072521 
z
" clip-path="url(#p53d00b6685)" style="fill: #c96f50; stroke: #ffffff; stroke-width: 0.8; stroke-linejoin: miter"/>
   </g>
   <g id="patch_44">
    <path d="M 277.74 221.415314 
L 334.2096 221.415314 
L 334.2096 203.072521 
L 277.74 203.072521 
z
" clip-path="url(#p53d00b6685)" style="fill: #a94442; stroke: #ffffff; stroke-width: 0.8; stroke-linejoin: miter"/>
   </g>
   <g id="patch_45">
    <path d="M 339.12 221.415314 
L 395.5896 221.415314 
L 395.5896 203.072521 
L 339.12 203.072521 
z
" clip-path="url(#p53d00b6685)" style="fill: #d7a928; stroke: #ffffff; stroke-width: 0.8; stroke-linejoin: miter"/>
   </g>
   <g id="patch_46">
    <path d="M 400.5 221.415314 
L 456.9696 221.415314 
L 456.9696 203.072521 
L 400.5 203.072521 
z
" clip-path="url(#p53d00b6685)" style="fill: #788354; stroke: #ffffff; stroke-width: 0.8; stroke-linejoin: miter"/>
   </g>
   <g id="patch_47">
    <path d="M 461.88 221.415314 
L 518.3496 221.415314 
L 518.3496 203.072521 
L 461.88 203.072521 
z
" clip-path="url(#p53d00b6685)" style="fill: #596a4b; stroke: #ffffff; stroke-width: 0.8; stroke-linejoin: miter"/>
   </g>
   <g id="patch_48">
    <path d="M 523.26 221.415314 
L 579.7296 221.415314 
L 579.7296 203.072521 
L 523.26 203.072521 
z
" clip-path="url(#p53d00b6685)" style="fill: #6c503b; stroke: #ffffff; stroke-width: 0.8; stroke-linejoin: miter"/>
   </g>
   <g id="patch_49">
    <path d="M 584.64 221.415314 
L 641.1096 221.415314 
L 641.1096 203.072521 
L 584.64 203.072521 
z
" clip-path="url(#p53d00b6685)" style="fill: #d9be8a; stroke: #ffffff; stroke-width: 0.8; stroke-linejoin: miter"/>
   </g>
   <g id="patch_50">
    <path d="M 154.98 251.000465 
L 211.4496 251.000465 
L 211.4496 232.657672 
L 154.98 232.657672 
z
" clip-path="url(#p53d00b6685)" style="fill: #2e4f68; stroke: #ffffff; stroke-width: 0.8; stroke-linejoin: miter"/>
   </g>
   <g id="patch_51">
    <path d="M 216.36 251.000465 
L 272.8296 251.000465 
L 272.8296 232.657672 
L 216.36 232.657672 
z
" clip-path="url(#p53d00b6685)" style="fill: #536f8d; stroke: #ffffff; stroke-width: 0.8; stroke-linejoin: miter"/>
   </g>
   <g id="patch_52">
    <path d="M 277.74 251.000465 
L 334.2096 251.000465 
L 334.2096 232.657672 
L 277.74 232.657672 
z
" clip-path="url(#p53d00b6685)" style="fill: #6fa7c4; stroke: #ffffff; stroke-width: 0.8; stroke-linejoin: miter"/>
   </g>
   <g id="patch_53">
    <path d="M 339.12 251.000465 
L 395.5896 251.000465 
L 395.5896 232.657672 
L 339.12 232.657672 
z
" clip-path="url(#p53d00b6685)" style="fill: #8fb7c7; stroke: #ffffff; stroke-width: 0.8; stroke-linejoin: miter"/>
   </g>
   <g id="patch_54">
    <path d="M 400.5 251.000465 
L 456.9696 251.000465 
L 456.9696 232.657672 
L 400.5 232.657672 
z
" clip-path="url(#p53d00b6685)" style="fill: #3e7c78; stroke: #ffffff; stroke-width: 0.8; stroke-linejoin: miter"/>
   </g>
   <g id="patch_55">
    <path d="M 461.88 251.000465 
L 518.3496 251.000465 
L 518.3496 232.657672 
L 461.88 232.657672 
z
" clip-path="url(#p53d00b6685)" style="fill: #80ad9b; stroke: #ffffff; stroke-width: 0.8; stroke-linejoin: miter"/>
   </g>
   <g id="patch_56">
    <path d="M 523.26 251.000465 
L 579.7296 251.000465 
L 579.7296 232.657672 
L 523.26 232.657672 
z
" clip-path="url(#p53d00b6685)" style="fill: #d77b73; stroke: #ffffff; stroke-width: 0.8; stroke-linejoin: miter"/>
   </g>
   <g id="patch_57">
    <path d="M 584.64 251.000465 
L 641.1096 251.000465 
L 641.1096 232.657672 
L 584.64 232.657672 
z
" clip-path="url(#p53d00b6685)" style="fill: #edc84b; stroke: #ffffff; stroke-width: 0.8; stroke-linejoin: miter"/>
   </g>
   <g id="patch_58">
    <path d="M 154.98 280.585616 
L 211.4496 280.585616 
L 211.4496 262.242822 
L 154.98 262.242822 
z
" clip-path="url(#p53d00b6685)" style="fill: #8c2943; stroke: #ffffff; stroke-width: 0.8; stroke-linejoin: miter"/>
   </g>
   <g id="patch_59">
    <path d="M 216.36 280.585616 
L 272.8296 280.585616 
L 272.8296 262.242822 
L 216.36 262.242822 
z
" clip-path="url(#p53d00b6685)" style="fill: #e4a127; stroke: #ffffff; stroke-width: 0.8; stroke-linejoin: miter"/>
   </g>
   <g id="patch_60">
    <path d="M 277.74 280.585616 
L 334.2096 280.585616 
L 334.2096 262.242822 
L 277.74 262.242822 
z
" clip-path="url(#p53d00b6685)" style="fill: #2e4f68; stroke: #ffffff; stroke-width: 0.8; stroke-linejoin: miter"/>
   </g>
   <g id="patch_61">
    <path d="M 339.12 280.585616 
L 395.5896 280.585616 
L 395.5896 262.242822 
L 339.12 262.242822 
z
" clip-path="url(#p53d00b6685)" style="fill: #8fb7c7; stroke: #ffffff; stroke-width: 0.8; stroke-linejoin: miter"/>
   </g>
   <g id="patch_62">
    <path d="M 400.5 280.585616 
L 456.9696 280.585616 
L 456.9696 262.242822 
L 400.5 262.242822 
z
" clip-path="url(#p53d00b6685)" style="fill: #d899a5; stroke: #ffffff; stroke-width: 0.8; stroke-linejoin: miter"/>
   </g>
   <g id="patch_63">
    <path d="M 461.88 280.585616 
L 518.3496 280.585616 
L 518.3496 262.242822 
L 461.88 262.242822 
z
" clip-path="url(#p53d00b6685)" style="fill: #788354; stroke: #ffffff; stroke-width: 0.8; stroke-linejoin: miter"/>
   </g>
   <g id="patch_64">
    <path d="M 523.26 280.585616 
L 579.7296 280.585616 
L 579.7296 262.242822 
L 523.26 262.242822 
z
" clip-path="url(#p53d00b6685)" style="fill: #f7f3eb; stroke: #ffffff; stroke-width: 0.8; stroke-linejoin: miter"/>
   </g>
   <g id="patch_65">
    <path d="M 584.64 280.585616 
L 641.1096 280.585616 
L 641.1096 262.242822 
L 584.64 262.242822 
z
" clip-path="url(#p53d00b6685)" style="fill: #2f2a26; stroke: #ffffff; stroke-width: 0.8; stroke-linejoin: miter"/>
   </g>
   <g id="patch_66">
    <path d="M 154.98 310.170767 
L 267.9192 310.170767 
L 267.9192 291.827973 
L 154.98 291.827973 
z
" clip-path="url(#p53d00b6685)" style="fill: #8c2943; stroke: #ffffff; stroke-width: 0.8; stroke-linejoin: miter"/>
   </g>
   <g id="patch_67">
    <path d="M 277.74 310.170767 
L 390.6792 310.170767 
L 390.6792 291.827973 
L 277.74 291.827973 
z
" clip-path="url(#p53d00b6685)" style="fill: #d7a928; stroke: #ffffff; stroke-width: 0.8; stroke-linejoin: miter"/>
   </g>
   <g id="patch_68">
    <path d="M 400.5 310.170767 
L 513.4392 310.170767 
L 513.4392 291.827973 
L 400.5 291.827973 
z
" clip-path="url(#p53d00b6685)" style="fill: #3e7c78; stroke: #ffffff; stroke-width: 0.8; stroke-linejoin: miter"/>
   </g>
   <g id="patch_69">
    <path d="M 523.26 310.170767 
L 636.1992 310.170767 
L 636.1992 291.827973 
L 523.26 291.827973 
z
" clip-path="url(#p53d00b6685)" style="fill: #8fb7c7; stroke: #ffffff; stroke-width: 0.8; stroke-linejoin: miter"/>
   </g>
   <g id="patch_70">
    <path d="M 154.98 339.755918 
L 230.2728 339.755918 
L 230.2728 321.413124 
L 154.98 321.413124 
z
" clip-path="url(#p53d00b6685)" style="fill: #8c2943; stroke: #ffffff; stroke-width: 0.8; stroke-linejoin: miter"/>
   </g>
   <g id="patch_71">
    <path d="M 236.82 339.755918 
L 312.1128 339.755918 
L 312.1128 321.413124 
L 236.82 321.413124 
z
" clip-path="url(#p53d00b6685)" style="fill: #d7a928; stroke: #ffffff; stroke-width: 0.8; stroke-linejoin: miter"/>
   </g>
   <g id="patch_72">
    <path d="M 318.66 339.755918 
L 393.9528 339.755918 
L 393.9528 321.413124 
L 318.66 321.413124 
z
" clip-path="url(#p53d00b6685)" style="fill: #3e7c78; stroke: #ffffff; stroke-width: 0.8; stroke-linejoin: miter"/>
   </g>
   <g id="patch_73">
    <path d="M 400.5 339.755918 
L 475.7928 339.755918 
L 475.7928 321.413124 
L 400.5 321.413124 
z
" clip-path="url(#p53d00b6685)" style="fill: #d77b73; stroke: #ffffff; stroke-width: 0.8; stroke-linejoin: miter"/>
   </g>
   <g id="patch_74">
    <path d="M 482.34 339.755918 
L 557.6328 339.755918 
L 557.6328 321.413124 
L 482.34 321.413124 
z
" clip-path="url(#p53d00b6685)" style="fill: #536f8d; stroke: #ffffff; stroke-width: 0.8; stroke-linejoin: miter"/>
   </g>
   <g id="patch_75">
    <path d="M 564.18 339.755918 
L 639.4728 339.755918 
L 639.4728 321.413124 
L 564.18 321.413124 
z
" clip-path="url(#p53d00b6685)" style="fill: #9a789c; stroke: #ffffff; stroke-width: 0.8; stroke-linejoin: miter"/>
   </g>
   <g id="patch_76">
    <path d="M 154.98 369.341068 
L 211.4496 369.341068 
L 211.4496 350.998275 
L 154.98 350.998275 
z
" clip-path="url(#p53d00b6685)" style="fill: #8c2943; stroke: #ffffff; stroke-width: 0.8; stroke-linejoin: miter"/>
   </g>
   <g id="patch_77">
    <path d="M 216.36 369.341068 
L 272.8296 369.341068 
L 272.8296 350.998275 
L 216.36 350.998275 
z
" clip-path="url(#p53d00b6685)" style="fill: #d7a928; stroke: #ffffff; stroke-width: 0.8; stroke-linejoin: miter"/>
   </g>
   <g id="patch_78">
    <path d="M 277.74 369.341068 
L 334.2096 369.341068 
L 334.2096 350.998275 
L 277.74 350.998275 
z
" clip-path="url(#p53d00b6685)" style="fill: #3e7c78; stroke: #ffffff; stroke-width: 0.8; stroke-linejoin: miter"/>
   </g>
   <g id="patch_79">
    <path d="M 339.12 369.341068 
L 395.5896 369.341068 
L 395.5896 350.998275 
L 339.12 350.998275 
z
" clip-path="url(#p53d00b6685)" style="fill: #d77b73; stroke: #ffffff; stroke-width: 0.8; stroke-linejoin: miter"/>
   </g>
   <g id="patch_80">
    <path d="M 400.5 369.341068 
L 456.9696 369.341068 
L 456.9696 350.998275 
L 400.5 350.998275 
z
" clip-path="url(#p53d00b6685)" style="fill: #536f8d; stroke: #ffffff; stroke-width: 0.8; stroke-linejoin: miter"/>
   </g>
   <g id="patch_81">
    <path d="M 461.88 369.341068 
L 518.3496 369.341068 
L 518.3496 350.998275 
L 461.88 350.998275 
z
" clip-path="url(#p53d00b6685)" style="fill: #9a789c; stroke: #ffffff; stroke-width: 0.8; stroke-linejoin: miter"/>
   </g>
   <g id="patch_82">
    <path d="M 523.26 369.341068 
L 579.7296 369.341068 
L 579.7296 350.998275 
L 523.26 350.998275 
z
" clip-path="url(#p53d00b6685)" style="fill: #788354; stroke: #ffffff; stroke-width: 0.8; stroke-linejoin: miter"/>
   </g>
   <g id="patch_83">
    <path d="M 584.64 369.341068 
L 641.1096 369.341068 
L 641.1096 350.998275 
L 584.64 350.998275 
z
" clip-path="url(#p53d00b6685)" style="fill: #d899a5; stroke: #ffffff; stroke-width: 0.8; stroke-linejoin: miter"/>
   </g>
   <g id="patch_84">
    <path d="M 154.98 398.926219 
L 192.6264 398.926219 
L 192.6264 380.583426 
L 154.98 380.583426 
z
" clip-path="url(#p53d00b6685)" style="fill: #8c2943; stroke: #ffffff; stroke-width: 0.8; stroke-linejoin: miter"/>
   </g>
   <g id="patch_85">
    <path d="M 195.9 398.926219 
L 233.5464 398.926219 
L 233.5464 380.583426 
L 195.9 380.583426 
z
" clip-path="url(#p53d00b6685)" style="fill: #d7a928; stroke: #ffffff; stroke-width: 0.8; stroke-linejoin: miter"/>
   </g>
   <g id="patch_86">
    <path d="M 236.82 398.926219 
L 274.4664 398.926219 
L 274.4664 380.583426 
L 236.82 380.583426 
z
" clip-path="url(#p53d00b6685)" style="fill: #3e7c78; stroke: #ffffff; stroke-width: 0.8; stroke-linejoin: miter"/>
   </g>
   <g id="patch_87">
    <path d="M 277.74 398.926219 
L 315.3864 398.926219 
L 315.3864 380.583426 
L 277.74 380.583426 
z
" clip-path="url(#p53d00b6685)" style="fill: #d77b73; stroke: #ffffff; stroke-width: 0.8; stroke-linejoin: miter"/>
   </g>
   <g id="patch_88">
    <path d="M 318.66 398.926219 
L 356.3064 398.926219 
L 356.3064 380.583426 
L 318.66 380.583426 
z
" clip-path="url(#p53d00b6685)" style="fill: #536f8d; stroke: #ffffff; stroke-width: 0.8; stroke-linejoin: miter"/>
   </g>
   <g id="patch_89">
    <path d="M 359.58 398.926219 
L 397.2264 398.926219 
L 397.2264 380.583426 
L 359.58 380.583426 
z
" clip-path="url(#p53d00b6685)" style="fill: #9a789c; stroke: #ffffff; stroke-width: 0.8; stroke-linejoin: miter"/>
   </g>
   <g id="patch_90">
    <path d="M 400.5 398.926219 
L 438.1464 398.926219 
L 438.1464 380.583426 
L 400.5 380.583426 
z
" clip-path="url(#p53d00b6685)" style="fill: #788354; stroke: #ffffff; stroke-width: 0.8; stroke-linejoin: miter"/>
   </g>
   <g id="patch_91">
    <path d="M 441.42 398.926219 
L 479.0664 398.926219 
L 479.0664 380.583426 
L 441.42 380.583426 
z
" clip-path="url(#p53d00b6685)" style="fill: #d899a5; stroke: #ffffff; stroke-width: 0.8; stroke-linejoin: miter"/>
   </g>
   <g id="patch_92">
    <path d="M 482.34 398.926219 
L 519.9864 398.926219 
L 519.9864 380.583426 
L 482.34 380.583426 
z
" clip-path="url(#p53d00b6685)" style="fill: #e4a127; stroke: #ffffff; stroke-width: 0.8; stroke-linejoin: miter"/>
   </g>
   <g id="patch_93">
    <path d="M 523.26 398.926219 
L 560.9064 398.926219 
L 560.9064 380.583426 
L 523.26 380.583426 
z
" clip-path="url(#p53d00b6685)" style="fill: #8fb7c7; stroke: #ffffff; stroke-width: 0.8; stroke-linejoin: miter"/>
   </g>
   <g id="patch_94">
    <path d="M 564.18 398.926219 
L 601.8264 398.926219 
L 601.8264 380.583426 
L 564.18 380.583426 
z
" clip-path="url(#p53d00b6685)" style="fill: #596a4b; stroke: #ffffff; stroke-width: 0.8; stroke-linejoin: miter"/>
   </g>
   <g id="patch_95">
    <path d="M 605.1 398.926219 
L 642.7464 398.926219 
L 642.7464 380.583426 
L 605.1 380.583426 
z
" clip-path="url(#p53d00b6685)" style="fill: #c96f50; stroke: #ffffff; stroke-width: 0.8; stroke-linejoin: miter"/>
   </g>
   <g id="patch_96">
    <path d="M 154.98 428.51137 
L 211.4496 428.51137 
L 211.4496 410.168576 
L 154.98 410.168576 
z
" clip-path="url(#p53d00b6685)" style="fill: #a94442; stroke: #ffffff; stroke-width: 0.8; stroke-linejoin: miter"/>
   </g>
   <g id="patch_97">
    <path d="M 216.36 428.51137 
L 272.8296 428.51137 
L 272.8296 410.168576 
L 216.36 410.168576 
z
" clip-path="url(#p53d00b6685)" style="fill: #a69a64; stroke: #ffffff; stroke-width: 0.8; stroke-linejoin: miter"/>
   </g>
   <g id="patch_98">
    <path d="M 277.74 428.51137 
L 334.2096 428.51137 
L 334.2096 410.168576 
L 277.74 410.168576 
z
" clip-path="url(#p53d00b6685)" style="fill: #6f8f73; stroke: #ffffff; stroke-width: 0.8; stroke-linejoin: miter"/>
   </g>
   <g id="patch_99">
    <path d="M 339.12 428.51137 
L 395.5896 428.51137 
L 395.5896 410.168576 
L 339.12 410.168576 
z
" clip-path="url(#p53d00b6685)" style="fill: #8fb7c7; stroke: #ffffff; stroke-width: 0.8; stroke-linejoin: miter"/>
   </g>
   <g id="patch_100">
    <path d="M 400.5 428.51137 
L 456.9696 428.51137 
L 456.9696 410.168576 
L 400.5 410.168576 
z
" clip-path="url(#p53d00b6685)" style="fill: #536f8d; stroke: #ffffff; stroke-width: 0.8; stroke-linejoin: miter"/>
   </g>
   <g id="patch_101">
    <path d="M 461.88 428.51137 
L 518.3496 428.51137 
L 518.3496 410.168576 
L 461.88 410.168576 
z
" clip-path="url(#p53d00b6685)" style="fill: #9a789c; stroke: #ffffff; stroke-width: 0.8; stroke-linejoin: miter"/>
   </g>
   <g id="patch_102">
    <path d="M 523.26 428.51137 
L 579.7296 428.51137 
L 579.7296 410.168576 
L 523.26 410.168576 
z
" clip-path="url(#p53d00b6685)" style="fill: #8b847c; stroke: #ffffff; stroke-width: 0.8; stroke-linejoin: miter"/>
   </g>
   <g id="patch_103">
    <path d="M 584.64 428.51137 
L 641.1096 428.51137 
L 641.1096 410.168576 
L 584.64 410.168576 
z
" clip-path="url(#p53d00b6685)" style="fill: #d9be8a; stroke: #ffffff; stroke-width: 0.8; stroke-linejoin: miter"/>
   </g>
   <g id="patch_104">
    <path d="M 154.98 458.096521 
L 211.4496 458.096521 
L 211.4496 439.753727 
L 154.98 439.753727 
z
" clip-path="url(#p53d00b6685)" style="fill: #2f2a26; stroke: #ffffff; stroke-width: 0.8; stroke-linejoin: miter"/>
   </g>
   <g id="patch_105">
    <path d="M 216.36 458.096521 
L 272.8296 458.096521 
L 272.8296 439.753727 
L 216.36 439.753727 
z
" clip-path="url(#p53d00b6685)" style="fill: #e4a127; stroke: #ffffff; stroke-width: 0.8; stroke-linejoin: miter"/>
   </g>
   <g id="patch_106">
    <path d="M 277.74 458.096521 
L 334.2096 458.096521 
L 334.2096 439.753727 
L 277.74 439.753727 
z
" clip-path="url(#p53d00b6685)" style="fill: #6fa7c4; stroke: #ffffff; stroke-width: 0.8; stroke-linejoin: miter"/>
   </g>
   <g id="patch_107">
    <path d="M 339.12 458.096521 
L 395.5896 458.096521 
L 395.5896 439.753727 
L 339.12 439.753727 
z
" clip-path="url(#p53d00b6685)" style="fill: #3e7c78; stroke: #ffffff; stroke-width: 0.8; stroke-linejoin: miter"/>
   </g>
   <g id="patch_108">
    <path d="M 400.5 458.096521 
L 456.9696 458.096521 
L 456.9696 439.753727 
L 400.5 439.753727 
z
" clip-path="url(#p53d00b6685)" style="fill: #edc84b; stroke: #ffffff; stroke-width: 0.8; stroke-linejoin: miter"/>
   </g>
   <g id="patch_109">
    <path d="M 461.88 458.096521 
L 518.3496 458.096521 
L 518.3496 439.753727 
L 461.88 439.753727 
z
" clip-path="url(#p53d00b6685)" style="fill: #536f8d; stroke: #ffffff; stroke-width: 0.8; stroke-linejoin: miter"/>
   </g>
   <g id="patch_110">
    <path d="M 523.26 458.096521 
L 579.7296 458.096521 
L 579.7296 439.753727 
L 523.26 439.753727 
z
" clip-path="url(#p53d00b6685)" style="fill: #c96f50; stroke: #ffffff; stroke-width: 0.8; stroke-linejoin: miter"/>
   </g>
   <g id="patch_111">
    <path d="M 584.64 458.096521 
L 641.1096 458.096521 
L 641.1096 439.753727 
L 584.64 439.753727 
z
" clip-path="url(#p53d00b6685)" style="fill: #c56f8d; stroke: #ffffff; stroke-width: 0.8; stroke-linejoin: miter"/>
   </g>
   <g id="patch_112">
    <path d="M 154.98 487.681672 
L 219.516686 487.681672 
L 219.516686 469.338878 
L 154.98 469.338878 
z
" clip-path="url(#p53d00b6685)" style="fill: #f7f3eb; stroke: #ffffff; stroke-width: 0.8; stroke-linejoin: miter"/>
   </g>
   <g id="patch_113">
    <path d="M 225.128571 487.681672 
L 289.665257 487.681672 
L 289.665257 469.338878 
L 225.128571 469.338878 
z
" clip-path="url(#p53d00b6685)" style="fill: #d9be8a; stroke: #ffffff; stroke-width: 0.8; stroke-linejoin: miter"/>
   </g>
   <g id="patch_114">
    <path d="M 295.277143 487.681672 
L 359.813829 487.681672 
L 359.813829 469.338878 
L 295.277143 469.338878 
z
" clip-path="url(#p53d00b6685)" style="fill: #e9a46b; stroke: #ffffff; stroke-width: 0.8; stroke-linejoin: miter"/>
   </g>
   <g id="patch_115">
    <path d="M 365.425714 487.681672 
L 429.9624 487.681672 
L 429.9624 469.338878 
L 365.425714 469.338878 
z
" clip-path="url(#p53d00b6685)" style="fill: #c96f50; stroke: #ffffff; stroke-width: 0.8; stroke-linejoin: miter"/>
   </g>
   <g id="patch_116">
    <path d="M 435.574286 487.681672 
L 500.110971 487.681672 
L 500.110971 469.338878 
L 435.574286 469.338878 
z
" clip-path="url(#p53d00b6685)" style="fill: #a94442; stroke: #ffffff; stroke-width: 0.8; stroke-linejoin: miter"/>
   </g>
   <g id="patch_117">
    <path d="M 505.722857 487.681672 
L 570.259543 487.681672 
L 570.259543 469.338878 
L 505.722857 469.338878 
z
" clip-path="url(#p53d00b6685)" style="fill: #8c2943; stroke: #ffffff; stroke-width: 0.8; stroke-linejoin: miter"/>
   </g>
   <g id="patch_118">
    <path d="M 575.871429 487.681672 
L 640.408114 487.681672 
L 640.408114 469.338878 
L 575.871429 469.338878 
z
" clip-path="url(#p53d00b6685)" style="fill: #6d4c6d; stroke: #ffffff; stroke-width: 0.8; stroke-linejoin: miter"/>
   </g>
   <g id="patch_119">
    <path d="M 154.98 517.266822 
L 245.33136 517.266822 
L 245.33136 498.924029 
L 154.98 498.924029 
z
" clip-path="url(#p53d00b6685)" style="fill: #f7f3eb; stroke: #ffffff; stroke-width: 0.8; stroke-linejoin: miter"/>
   </g>
   <g id="patch_120">
    <path d="M 253.188 517.266822 
L 343.53936 517.266822 
L 343.53936 498.924029 
L 253.188 498.924029 
z
" clip-path="url(#p53d00b6685)" style="fill: #8fb7c7; stroke: #ffffff; stroke-width: 0.8; stroke-linejoin: miter"/>
   </g>
   <g id="patch_121">
    <path d="M 351.396 517.266822 
L 441.74736 517.266822 
L 441.74736 498.924029 
L 351.396 498.924029 
z
" clip-path="url(#p53d00b6685)" style="fill: #6fa7c4; stroke: #ffffff; stroke-width: 0.8; stroke-linejoin: miter"/>
   </g>
   <g id="patch_122">
    <path d="M 449.604 517.266822 
L 539.95536 517.266822 
L 539.95536 498.924029 
L 449.604 498.924029 
z
" clip-path="url(#p53d00b6685)" style="fill: #3e7c78; stroke: #ffffff; stroke-width: 0.8; stroke-linejoin: miter"/>
   </g>
   <g id="patch_123">
    <path d="M 547.812 517.266822 
L 638.16336 517.266822 
L 638.16336 498.924029 
L 547.812 498.924029 
z
" clip-path="url(#p53d00b6685)" style="fill: #2e4f68; stroke: #ffffff; stroke-width: 0.8; stroke-linejoin: miter"/>
   </g>
   <g id="patch_124">
    <path d="M 154.98 546.851973 
L 245.33136 546.851973 
L 245.33136 528.50918 
L 154.98 528.50918 
z
" clip-path="url(#p53d00b6685)" style="fill: #f7f3eb; stroke: #ffffff; stroke-width: 0.8; stroke-linejoin: miter"/>
   </g>
   <g id="patch_125">
    <path d="M 253.188 546.851973 
L 343.53936 546.851973 
L 343.53936 528.50918 
L 253.188 528.50918 
z
" clip-path="url(#p53d00b6685)" style="fill: #80ad9b; stroke: #ffffff; stroke-width: 0.8; stroke-linejoin: miter"/>
   </g>
   <g id="patch_126">
    <path d="M 351.396 546.851973 
L 441.74736 546.851973 
L 441.74736 528.50918 
L 351.396 528.50918 
z
" clip-path="url(#p53d00b6685)" style="fill: #6f8f73; stroke: #ffffff; stroke-width: 0.8; stroke-linejoin: miter"/>
   </g>
   <g id="patch_127">
    <path d="M 449.604 546.851973 
L 539.95536 546.851973 
L 539.95536 528.50918 
L 449.604 528.50918 
z
" clip-path="url(#p53d00b6685)" style="fill: #788354; stroke: #ffffff; stroke-width: 0.8; stroke-linejoin: miter"/>
   </g>
   <g id="patch_128">
    <path d="M 547.812 546.851973 
L 638.16336 546.851973 
L 638.16336 528.50918 
L 547.812 528.50918 
z
" clip-path="url(#p53d00b6685)" style="fill: #596a4b; stroke: #ffffff; stroke-width: 0.8; stroke-linejoin: miter"/>
   </g>
   <g id="patch_129">
    <path d="M 154.98 576.437124 
L 267.9192 576.437124 
L 267.9192 558.094331 
L 154.98 558.094331 
z
" clip-path="url(#p53d00b6685)" style="fill: #f7f3eb; stroke: #ffffff; stroke-width: 0.8; stroke-linejoin: miter"/>
   </g>
   <g id="patch_130">
    <path d="M 277.74 576.437124 
L 390.6792 576.437124 
L 390.6792 558.094331 
L 277.74 558.094331 
z
" clip-path="url(#p53d00b6685)" style="fill: #b6a1c4; stroke: #ffffff; stroke-width: 0.8; stroke-linejoin: miter"/>
   </g>
   <g id="patch_131">
    <path d="M 400.5 576.437124 
L 513.4392 576.437124 
L 513.4392 558.094331 
L 400.5 558.094331 
z
" clip-path="url(#p53d00b6685)" style="fill: #9a789c; stroke: #ffffff; stroke-width: 0.8; stroke-linejoin: miter"/>
   </g>
   <g id="patch_132">
    <path d="M 523.26 576.437124 
L 636.1992 576.437124 
L 636.1992 558.094331 
L 523.26 558.094331 
z
" clip-path="url(#p53d00b6685)" style="fill: #6d4c6d; stroke: #ffffff; stroke-width: 0.8; stroke-linejoin: miter"/>
   </g>
   <g id="patch_133">
    <path d="M 154.98 606.022275 
L 219.516686 606.022275 
L 219.516686 587.679481 
L 154.98 587.679481 
z
" clip-path="url(#p53d00b6685)" style="fill: #2e4f68; stroke: #ffffff; stroke-width: 0.8; stroke-linejoin: miter"/>
   </g>
   <g id="patch_134">
    <path d="M 225.128571 606.022275 
L 289.665257 606.022275 
L 289.665257 587.679481 
L 225.128571 587.679481 
z
" clip-path="url(#p53d00b6685)" style="fill: #536f8d; stroke: #ffffff; stroke-width: 0.8; stroke-linejoin: miter"/>
   </g>
   <g id="patch_135">
    <path d="M 295.277143 606.022275 
L 359.813829 606.022275 
L 359.813829 587.679481 
L 295.277143 587.679481 
z
" clip-path="url(#p53d00b6685)" style="fill: #8fb7c7; stroke: #ffffff; stroke-width: 0.8; stroke-linejoin: miter"/>
   </g>
   <g id="patch_136">
    <path d="M 365.425714 606.022275 
L 429.9624 606.022275 
L 429.9624 587.679481 
L 365.425714 587.679481 
z
" clip-path="url(#p53d00b6685)" style="fill: #f7f3eb; stroke: #ffffff; stroke-width: 0.8; stroke-linejoin: miter"/>
   </g>
   <g id="patch_137">
    <path d="M 435.574286 606.022275 
L 500.110971 606.022275 
L 500.110971 587.679481 
L 435.574286 587.679481 
z
" clip-path="url(#p53d00b6685)" style="fill: #e9a46b; stroke: #ffffff; stroke-width: 0.8; stroke-linejoin: miter"/>
   </g>
   <g id="patch_138">
    <path d="M 505.722857 606.022275 
L 570.259543 606.022275 
L 570.259543 587.679481 
L 505.722857 587.679481 
z
" clip-path="url(#p53d00b6685)" style="fill: #c96f50; stroke: #ffffff; stroke-width: 0.8; stroke-linejoin: miter"/>
   </g>
   <g id="patch_139">
    <path d="M 575.871429 606.022275 
L 640.408114 606.022275 
L 640.408114 587.679481 
L 575.871429 587.679481 
z
" clip-path="url(#p53d00b6685)" style="fill: #8c2943; stroke: #ffffff; stroke-width: 0.8; stroke-linejoin: miter"/>
   </g>
   <g id="patch_140">
    <path d="M 154.98 635.607426 
L 230.2728 635.607426 
L 230.2728 617.264632 
L 154.98 617.264632 
z
" clip-path="url(#p53d00b6685)" style="fill: #3e7c78; stroke: #ffffff; stroke-width: 0.8; stroke-linejoin: miter"/>
   </g>
   <g id="patch_141">
    <path d="M 236.82 635.607426 
L 312.1128 635.607426 
L 312.1128 617.264632 
L 236.82 617.264632 
z
" clip-path="url(#p53d00b6685)" style="fill: #80ad9b; stroke: #ffffff; stroke-width: 0.8; stroke-linejoin: miter"/>
   </g>
   <g id="patch_142">
    <path d="M 318.66 635.607426 
L 393.9528 635.607426 
L 393.9528 617.264632 
L 318.66 617.264632 
z
" clip-path="url(#p53d00b6685)" style="fill: #f7f3eb; stroke: #ffffff; stroke-width: 0.8; stroke-linejoin: miter"/>
   </g>
   <g id="patch_143">
    <path d="M 400.5 635.607426 
L 475.7928 635.607426 
L 475.7928 617.264632 
L 400.5 617.264632 
z
" clip-path="url(#p53d00b6685)" style="fill: #d899a5; stroke: #ffffff; stroke-width: 0.8; stroke-linejoin: miter"/>
   </g>
   <g id="patch_144">
    <path d="M 482.34 635.607426 
L 557.6328 635.607426 
L 557.6328 617.264632 
L 482.34 617.264632 
z
" clip-path="url(#p53d00b6685)" style="fill: #d77b73; stroke: #ffffff; stroke-width: 0.8; stroke-linejoin: miter"/>
   </g>
   <g id="patch_145">
    <path d="M 564.18 635.607426 
L 639.4728 635.607426 
L 639.4728 617.264632 
L 564.18 617.264632 
z
" clip-path="url(#p53d00b6685)" style="fill: #a94442; stroke: #ffffff; stroke-width: 0.8; stroke-linejoin: miter"/>
   </g>
   <g id="text_1">
    <text style="font-weight: 700; font-size: 19px; font-family: 'Arial', 'Helvetica', 'DejaVu Sans', 'Liberation Sans', sans-serif; text-anchor: start; fill: #2f2a26" x="4.32" y="18.757031" transform="rotate(-0 4.32 18.757031)">Named and functional palettes</text>
   </g>
   <g id="text_2">
    <text style="font-size: 10.5px; font-family: 'Arial', 'Helvetica', 'DejaVu Sans', 'Liberation Sans', sans-serif; text-anchor: start; fill: #8b847c" x="4.32" y="31.774498" transform="rotate(-0 4.32 31.774498)">Categorical, sequential and diverging colour families</text>
   </g>
   <g id="text_3">
    <text style="font-weight: 700; font-size: 9.2px; font-family: 'Arial', 'Helvetica', 'DejaVu Sans', 'Liberation Sans', sans-serif; text-anchor: start; fill: #2f2a26" x="4.32" y="66.820851" transform="rotate(-0 4.32 66.820851)">grand budapest</text>
   </g>
   <g id="text_4">
    <text style="font-weight: 700; font-size: 9.2px; font-family: 'Arial', 'Helvetica', 'DejaVu Sans', 'Liberation Sans', sans-serif; text-anchor: start; fill: #2f2a26" x="4.32" y="96.441939" transform="rotate(-0 4.32 96.441939)">moonrise</text>
   </g>
   <g id="text_5">
    <text style="font-weight: 700; font-size: 9.2px; font-family: 'Arial', 'Helvetica', 'DejaVu Sans', 'Liberation Sans', sans-serif; text-anchor: start; fill: #2f2a26" x="4.32" y="125.991153" transform="rotate(-0 4.32 125.991153)">asteroid city</text>
   </g>
   <g id="text_6">
    <text style="font-weight: 700; font-size: 9.2px; font-family: 'Arial', 'Helvetica', 'DejaVu Sans', 'Liberation Sans', sans-serif; text-anchor: start; fill: #2f2a26" x="4.32" y="155.576303" transform="rotate(-0 4.32 155.576303)">darjeeling</text>
   </g>
   <g id="text_7">
    <text style="font-weight: 700; font-size: 9.2px; font-family: 'Arial', 'Helvetica', 'DejaVu Sans', 'Liberation Sans', sans-serif; text-anchor: start; fill: #2f2a26" x="4.32" y="185.161454" transform="rotate(-0 4.32 185.161454)">royal tenenbaums</text>
   </g>
   <g id="text_8">
    <text style="font-weight: 700; font-size: 9.2px; font-family: 'Arial', 'Helvetica', 'DejaVu Sans', 'Liberation Sans', sans-serif; text-anchor: start; fill: #2f2a26" x="4.32" y="214.782543" transform="rotate(-0 4.32 214.782543)">fantastic mr fox</text>
   </g>
   <g id="text_9">
    <text style="font-weight: 700; font-size: 9.2px; font-family: 'Arial', 'Helvetica', 'DejaVu Sans', 'Liberation Sans', sans-serif; text-anchor: start; fill: #2f2a26" x="4.32" y="244.367693" transform="rotate(-0 4.32 244.367693)">life aquatic</text>
   </g>
   <g id="text_10">
    <text style="font-weight: 700; font-size: 9.2px; font-family: 'Arial', 'Helvetica', 'DejaVu Sans', 'Liberation Sans', sans-serif; text-anchor: start; fill: #2f2a26" x="4.32" y="273.952844" transform="rotate(-0 4.32 273.952844)">french dispatch</text>
   </g>
   <g id="text_11">
    <text style="font-weight: 700; font-size: 9.2px; font-family: 'Arial', 'Helvetica', 'DejaVu Sans', 'Liberation Sans', sans-serif; text-anchor: start; fill: #2f2a26" x="4.32" y="303.537995" transform="rotate(-0 4.32 303.537995)">balanced 4</text>
   </g>
   <g id="text_12">
    <text style="font-weight: 700; font-size: 9.2px; font-family: 'Arial', 'Helvetica', 'DejaVu Sans', 'Liberation Sans', sans-serif; text-anchor: start; fill: #2f2a26" x="4.32" y="333.123146" transform="rotate(-0 4.32 333.123146)">balanced 6</text>
   </g>
   <g id="text_13">
    <text style="font-weight: 700; font-size: 9.2px; font-family: 'Arial', 'Helvetica', 'DejaVu Sans', 'Liberation Sans', sans-serif; text-anchor: start; fill: #2f2a26" x="4.32" y="362.708297" transform="rotate(-0 4.32 362.708297)">balanced 8</text>
   </g>
   <g id="text_14">
    <text style="font-weight: 700; font-size: 9.2px; font-family: 'Arial', 'Helvetica', 'DejaVu Sans', 'Liberation Sans', sans-serif; text-anchor: start; fill: #2f2a26" x="4.32" y="392.293447" transform="rotate(-0 4.32 392.293447)">balanced 12</text>
   </g>
   <g id="text_15">
    <text style="font-weight: 700; font-size: 9.2px; font-family: 'Arial', 'Helvetica', 'DejaVu Sans', 'Liberation Sans', sans-serif; text-anchor: start; fill: #2f2a26" x="4.32" y="421.878598" transform="rotate(-0 4.32 421.878598)">muted 8</text>
   </g>
   <g id="text_16">
    <text style="font-weight: 700; font-size: 9.2px; font-family: 'Arial', 'Helvetica', 'DejaVu Sans', 'Liberation Sans', sans-serif; text-anchor: start; fill: #2f2a26" x="4.32" y="451.463749" transform="rotate(-0 4.32 451.463749)">accessible 8</text>
   </g>
   <g id="text_17">
    <text style="font-weight: 700; font-size: 9.2px; font-family: 'Arial', 'Helvetica', 'DejaVu Sans', 'Liberation Sans', sans-serif; text-anchor: start; fill: #2f2a26" x="4.32" y="481.0489" transform="rotate(-0 4.32 481.0489)">warm</text>
   </g>
   <g id="text_18">
    <text style="font-weight: 700; font-size: 9.2px; font-family: 'Arial', 'Helvetica', 'DejaVu Sans', 'Liberation Sans', sans-serif; text-anchor: start; fill: #2f2a26" x="4.32" y="510.634051" transform="rotate(-0 4.32 510.634051)">cool</text>
   </g>
   <g id="text_19">
    <text style="font-weight: 700; font-size: 9.2px; font-family: 'Arial', 'Helvetica', 'DejaVu Sans', 'Liberation Sans', sans-serif; text-anchor: start; fill: #2f2a26" x="4.32" y="540.147326" transform="rotate(-0 4.32 540.147326)">green</text>
   </g>
   <g id="text_20">
    <text style="font-weight: 700; font-size: 9.2px; font-family: 'Arial', 'Helvetica', 'DejaVu Sans', 'Liberation Sans', sans-serif; text-anchor: start; fill: #2f2a26" x="4.32" y="569.804352" transform="rotate(-0 4.32 569.804352)">purple</text>
   </g>
   <g id="text_21">
    <text style="font-weight: 700; font-size: 9.2px; font-family: 'Arial', 'Helvetica', 'DejaVu Sans', 'Liberation Sans', sans-serif; text-anchor: start; fill: #2f2a26" x="4.32" y="599.389503" transform="rotate(-0 4.32 599.389503)">cool warm</text>
   </g>
   <g id="text_22">
    <text style="font-weight: 700; font-size: 9.2px; font-family: 'Arial', 'Helvetica', 'DejaVu Sans', 'Liberation Sans', sans-serif; text-anchor: start; fill: #2f2a26" x="4.32" y="628.974654" transform="rotate(-0 4.32 628.974654)">teal coral</text>
   </g>
  </g>
 </g>
 <defs>
  <clipPath id="p53d00b6685">
   <rect x="4.32" y="8.993931" width="669.6" height="637.56"/>
  </clipPath>
 </defs>
</svg>
